<svg xmlns="http://www.w3.org/2000/svg" viewBox="0 0 256 256" focusable="false" color="var(--token-c8809533-d74e-4474-af14-ef3a211efd13, rgb(0, 0, 0))" style="user-select: none; width: 100%; height: 100%; display: inline-block; fill: var(--token-c8809533-d74e-4474-af14-ef3a211efd13, rgb(0, 0, 0)); color: var(--token-c8809533-d74e-4474-af14-ef3a211efd13, rgb(0, 0, 0)); flex-shrink: 0;"><g color="var(--token-c8809533-d74e-4474-af14-ef3a211efd13, rgb(0, 0, 0))" weight="fill"><path d="M208,40H48A16,16,0,0,0,32,56v56c0,52.72,25.52,84.67,46.93,102.19,23.06,18.86,46,25.26,47,25.53a8,8,0,0,0,4.2,0c1-.27,23.91-6.67,47-25.53C198.48,196.67,224,164.72,224,112V56A16,16,0,0,0,208,40Zm-34.32,69.66-56,56a8,8,0,0,1-11.32,0l-24-24a8,8,0,0,1,11.32-11.32L112,148.69l50.34-50.35a8,8,0,0,1,11.32,11.32Z"></path></g></svg>