<svg xmlns="http://www.w3.org/2000/svg" viewBox="0 0 256 256" focusable="false" color="var(--token-44dd7634-948b-4475-884c-16fbad7c474d, rgb(255, 252, 252))" style="user-select: none; width: 100%; height: 100%; display: inline-block; fill: var(--token-44dd7634-948b-4475-884c-16fbad7c474d, rgb(255, 252, 252)); color: var(--token-44dd7634-948b-4475-884c-16fbad7c474d, rgb(255, 252, 252)); flex-shrink: 0;"><g color="var(--token-44dd7634-948b-4475-884c-16fbad7c474d, rgb(255, 252, 252))" weight="fill"><path d="M232,96a72,72,0,0,1-100.94,66L79,222.22c-.12.14-.26.29-.39.42a32,32,0,0,1-45.26-45.26c.14-.13.28-.27.43-.39L94,124.94a72.07,72.07,0,0,1,83.54-98.78,8,8,0,0,1,3.93,13.19L144,80l5.66,26.35L176,112l40.65-37.52a8,8,0,0,1,13.19,3.93A72.6,72.6,0,0,1,232,96Z"></path></g></svg>