<svg xmlns="http://www.w3.org/2000/svg" viewBox="0 0 256 256" focusable="false" color="var(--token-c8809533-d74e-4474-af14-ef3a211efd13, rgb(0, 0, 0))" style="user-select: none; width: 100%; height: 100%; display: inline-block; fill: var(--token-c8809533-d74e-4474-af14-ef3a211efd13, rgb(0, 0, 0)); color: var(--token-c8809533-d74e-4474-af14-ef3a211efd13, rgb(0, 0, 0)); flex-shrink: 0;"><g color="var(--token-c8809533-d74e-4474-af14-ef3a211efd13, rgb(0, 0, 0))" weight="fill"><path d="M128,24A104,104,0,0,0,36.18,176.88L24.83,210.93a16,16,0,0,0,20.24,20.24l34.05-11.35A104,104,0,1,0,128,24ZM84,140a12,12,0,1,1,12-12A12,12,0,0,1,84,140Zm44,0a12,12,0,1,1,12-12A12,12,0,0,1,128,140Zm44,0a12,12,0,1,1,12-12A12,12,0,0,1,172,140Z"></path></g></svg>