<svg xmlns="http://www.w3.org/2000/svg" viewBox="0 0 256 256" focusable="false" color="var(--token-c8809533-d74e-4474-af14-ef3a211efd13, rgb(0, 0, 0))" style="user-select: none; width: 100%; height: 100%; display: inline-block; fill: var(--token-c8809533-d74e-4474-af14-ef3a211efd13, rgb(0, 0, 0)); color: var(--token-c8809533-d74e-4474-af14-ef3a211efd13, rgb(0, 0, 0)); flex-shrink: 0;"><g color="var(--token-c8809533-d74e-4474-af14-ef3a211efd13, rgb(0, 0, 0))" weight="fill"><path d="M165.78,224H208a16,16,0,0,0,16-16V170.35A8,8,0,0,0,212.94,163a23.37,23.37,0,0,1-8.94,1.77c-13.23,0-24-11.1-24-24.73s10.77-24.73,24-24.73a23.37,23.37,0,0,1,8.94,1.77A8,8,0,0,0,224,109.65V72a16,16,0,0,0-16-16H171.78a35.36,35.36,0,0,0,.22-4,36,36,0,0,0-72,0,35.36,35.36,0,0,0,.22,4H64A16,16,0,0,0,48,72v32.22a35.36,35.36,0,0,0-4-.22,36,36,0,0,0,0,72,35.36,35.36,0,0,0,4-.22V208a16,16,0,0,0,16,16h42.22"></path></g></svg>